<?xml version="1.0" standalone="no"?>
<!DOCTYPE svg PUBLIC "-//W3C//DTD SVG 20010904//EN"
 "http://www.w3.org/TR/2001/REC-SVG-20010904/DTD/svg10.dtd">
<svg version="1.0" xmlns="http://www.w3.org/2000/svg"
 width="960.000000pt" height="960.000000pt" viewBox="0 0 960.000000 960.000000"
 preserveAspectRatio="xMidYMid meet">
<metadata>
Created by potrace 1.11, written by Peter Selinger 2001-2013
</metadata>
<g transform="translate(0.000000,960.000000) scale(0.100000,-0.100000)"
fill="#000000" stroke="none">
<path d="M4596 8948 c-110 -222 -201 -405 -202 -408 -1 -3 -5 -15 -9 -27 -4
-13 -11 -23 -16 -23 -5 0 -9 -5 -9 -11 0 -10 -209 -443 -231 -479 -5 -8 -13
-24 -18 -35 -5 -11 -111 -227 -237 -480 -125 -253 -229 -466 -230 -473 -1 -8
-9 -21 -17 -30 -9 -10 -19 -29 -22 -44 -4 -16 -11 -28 -16 -28 -5 0 -9 -3 -8
-7 2 -16 -14 -53 -22 -53 -5 0 -8 -3 -7 -7 3 -10 -215 -451 -234 -475 -8 -10
-35 -19 -67 -23 -30 -4 -63 -9 -75 -11 -12 -2 -41 -6 -66 -10 -25 -3 -71 -10
-104 -15 -32 -6 -60 -8 -63 -5 -3 3 -13 2 -22 -3 -9 -5 -41 -11 -71 -15 -30
-4 -66 -8 -80 -10 -14 -3 -47 -7 -75 -10 -27 -4 -59 -9 -71 -11 -12 -3 -36 -7
-55 -9 -19 -3 -81 -12 -139 -21 -58 -9 -121 -17 -140 -20 -19 -2 -53 -6 -75
-9 -22 -4 -58 -9 -80 -12 -22 -4 -47 -8 -55 -9 -8 -2 -37 -6 -65 -9 -53 -7
-75 -11 -140 -21 -22 -3 -55 -8 -73 -10 -73 -9 -118 -16 -147 -22 -16 -3 -41
-7 -55 -9 -85 -9 -131 -16 -175 -24 -27 -5 -72 -12 -100 -15 -27 -2 -72 -9
-100 -14 -27 -5 -53 -7 -57 -5 -5 3 -8 2 -8 -3 0 -4 -15 -8 -33 -9 -34 -1
-116 -11 -151 -19 -27 -6 -91 -15 -136 -20 -19 -2 -51 -7 -70 -10 -19 -3 -51
-8 -70 -10 -19 -3 -45 -6 -57 -9 -11 -2 -43 -7 -70 -11 -97 -13 -118 -16 -143
-20 -14 -2 -47 -6 -75 -10 -58 -7 -109 -15 -139 -21 -24 -5 -99 -15 -139 -19
-15 -1 -30 -5 -33 -8 -3 -3 -12 -3 -20 0 -23 9 -16 -7 21 -48 19 -22 35 -38
35 -36 0 1 74 -69 164 -158 90 -88 242 -236 337 -329 170 -164 566 -551 895
-872 90 -88 164 -158 164 -155 0 3 9 -7 20 -24 11 -16 20 -28 20 -24 0 3 72
-65 159 -150 87 -86 250 -244 361 -352 l201 -196 -21 -119 c-12 -65 -24 -130
-26 -144 -9 -60 -23 -141 -29 -170 -3 -14 -8 -38 -10 -55 -4 -28 -7 -48 -21
-128 -3 -17 -7 -45 -9 -62 -2 -16 -4 -30 -5 -30 -2 0 -7 -25 -14 -70 -4 -23
-8 -50 -10 -62 -6 -30 -17 -94 -21 -124 -2 -14 -11 -63 -19 -108 -9 -45 -15
-85 -15 -89 1 -4 0 -9 -1 -12 -4 -11 -21 -102 -25 -140 -2 -14 -4 -25 -5 -25
-1 0 -3 -11 -5 -25 -1 -14 -5 -34 -8 -45 -3 -11 -8 -40 -11 -65 -3 -25 -8 -55
-10 -66 -2 -12 -7 -37 -10 -55 -3 -19 -7 -43 -10 -54 -3 -17 -7 -43 -21 -140
-2 -11 -4 -21 -5 -22 -2 -2 -4 -12 -5 -23 -1 -11 -3 -21 -4 -22 -2 -2 -4 -19
-6 -39 -1 -20 -5 -45 -9 -55 -3 -10 -8 -37 -11 -59 -4 -22 -8 -51 -11 -65 -8
-48 -16 -93 -19 -119 -2 -14 -4 -26 -5 -26 -2 0 -7 -27 -14 -73 -3 -22 -7 -51
-10 -64 -3 -12 -8 -39 -11 -58 -6 -42 -13 -83 -22 -130 -11 -58 -12 -64 -18
-106 -3 -22 -8 -54 -11 -70 -3 -16 -6 -37 -7 -46 -1 -10 -5 -18 -10 -18 -4 0
-6 -4 -3 -9 5 -8 -25 -201 -49 -321 -5 -23 -15 -93 -19 -130 -1 -9 -5 -21 -10
-28 -11 -18 22 -27 42 -10 9 8 53 32 97 53 44 22 84 43 90 48 9 7 68 37 207
108 32 16 61 29 64 28 4 0 10 3 13 9 3 5 76 45 161 89 85 44 189 98 230 120
41 22 115 61 164 87 49 26 95 51 103 57 7 6 13 8 13 4 0 -4 6 -3 13 3 6 5 66
38 132 73 66 35 150 79 187 98 37 20 113 60 170 90 317 165 397 208 416 223 6
6 12 7 12 3 0 -4 11 0 24 8 13 9 68 39 122 68 55 28 140 73 189 99 50 26 119
62 155 80 36 19 76 41 90 50 14 10 36 21 50 25 14 4 32 13 40 20 8 8 22 15 30
17 8 2 17 5 20 8 3 3 33 20 67 38 l62 33 98 -52 c54 -28 130 -68 170 -89 40
-20 78 -42 85 -48 7 -5 16 -11 21 -11 7 -1 53 -24 172 -87 33 -18 92 -48 130
-68 39 -20 133 -70 210 -111 77 -42 160 -85 185 -97 25 -12 48 -27 52 -32 4
-6 8 -8 8 -4 0 4 26 -8 58 -26 31 -18 72 -39 90 -47 17 -7 32 -17 32 -21 0 -5
3 -7 8 -6 8 1 45 -13 52 -21 3 -3 43 -26 90 -50 159 -81 295 -153 308 -163 6
-6 12 -7 12 -3 0 4 6 2 13 -4 8 -6 38 -24 68 -39 145 -77 311 -163 369 -193
36 -19 67 -36 70 -39 3 -4 21 -12 40 -20 19 -8 37 -16 40 -19 3 -3 37 -22 75
-42 85 -44 257 -134 385 -202 52 -27 101 -54 108 -60 6 -5 12 -8 13 -6 6 31 6
39 0 39 -4 0 -7 10 -7 23 -1 20 -5 48 -17 102 -2 11 -8 43 -11 70 -12 81 -17
116 -22 139 -11 48 -25 130 -30 166 -1 14 -3 25 -4 25 -1 0 -3 9 -4 20 -8 56
-17 112 -21 125 -2 8 -6 33 -10 55 -3 22 -7 47 -10 55 -5 21 -18 110 -19 138
-1 12 -3 22 -6 22 -3 0 -6 9 -7 21 -1 12 -9 63 -18 115 -9 52 -18 107 -20 122
-2 15 -6 37 -9 48 -6 30 -18 95 -20 119 -2 11 -6 36 -10 55 -7 33 -11 60 -20
120 -2 14 -5 25 -6 25 -1 0 -3 11 -4 25 -2 26 -16 111 -23 145 -7 34 -12 59
-17 95 -3 19 -8 45 -10 56 -5 25 -15 87 -21 129 -3 17 -7 41 -10 55 -3 14 -12
68 -21 120 -8 52 -18 106 -20 120 -3 14 -7 39 -10 55 -7 44 -23 137 -28 160
-2 11 -7 40 -11 65 -4 25 -9 52 -10 60 -7 38 -18 107 -21 125 -2 11 -5 30 -8
41 -4 22 -11 63 -22 132 -3 20 -7 48 -10 62 -3 14 -7 39 -10 55 -3 17 -11 68
-19 114 l-15 84 147 144 c80 78 147 143 147 143 1 0 80 77 176 171 361 352
770 751 1230 1199 449 438 642 626 668 650 31 29 19 39 -50 45 -30 3 -66 8
-79 10 -13 3 -41 7 -64 10 -22 3 -65 10 -95 15 -30 5 -77 12 -105 15 -27 3
-59 8 -70 10 -11 2 -40 7 -65 10 -25 3 -56 7 -69 10 -14 2 -47 7 -75 10 -28 3
-58 8 -66 10 -8 2 -35 7 -60 10 -25 2 -55 7 -67 9 -12 3 -46 7 -75 10 -29 4
-64 8 -78 11 -14 2 -41 6 -60 9 -19 3 -52 7 -72 10 -75 12 -114 17 -148 22
-40 5 -86 12 -115 18 -11 2 -47 7 -80 11 -33 5 -69 10 -80 11 -25 5 -89 13
-135 19 -19 2 -62 8 -95 14 -79 13 -132 21 -175 26 -53 7 -95 13 -95 15 0 1
-16 3 -35 5 -19 1 -53 6 -75 10 -22 3 -53 8 -68 10 -64 9 -116 17 -172 25
-128 19 -151 22 -175 26 -14 1 -41 6 -60 9 -19 3 -48 8 -65 9 -58 7 -132 17
-152 20 -12 3 -43 7 -70 11 -26 4 -59 9 -73 11 -14 3 -45 7 -70 11 -25 3 -79
11 -120 17 l-75 11 -82 163 c-45 89 -79 162 -75 162 4 0 2 4 -3 8 -12 8 -115
215 -115 230 0 6 -3 12 -7 14 -5 2 -18 26 -31 53 -13 28 -28 59 -34 70 -27 48
-88 176 -88 185 0 6 -4 10 -10 10 -5 0 -10 6 -10 13 0 7 -27 67 -60 132 -33
66 -60 125 -60 132 0 6 -3 13 -7 15 -9 4 -193 375 -193 388 0 6 -4 10 -10 10
-5 0 -10 5 -10 12 0 6 -74 160 -164 342 -90 182 -190 385 -222 451 -32 66 -62
122 -66 123 -4 2 -8 9 -8 15 0 14 -223 467 -230 467 -3 0 -95 -181 -204 -402z"/>
</g>
</svg>
