<svg id="Layer_1" data-name="Layer 1" xmlns="http://www.w3.org/2000/svg" xmlns:xlink="http://www.w3.org/1999/xlink" viewBox="0 0 479.59 456.11"><defs><style>.cls-1{fill:url(#radial-gradient);}</style><radialGradient id="radial-gradient" cx="433.99" cy="102.16" r="235.63" gradientTransform="matrix(0.97, -0.26, 0.26, 0.97, -187.62, 255.64)" gradientUnits="userSpaceOnUse"><stop offset="0" stop-color="#fff"/><stop offset="1" stop-color="#b3b3b3"/></radialGradient></defs><polygon class="cls-1" points="388 456.12 239.79 378.2 91.59 456.12 119.9 291.09 0 174.22 165.69 150.14 239.79 0 313.89 150.14 479.59 174.22 359.69 291.09 388 456.12"/><path d="M230.83,255q4.74,5.4,4.74,14,0,10.68-7.8,16.44t-23.16,5.76H167.17v-84h35q13.68,0,21.3,5.58t7.62,15.9a19.3,19.3,0,0,1-3.78,12.12,20.88,20.88,0,0,1-10.26,7.08Q226.09,249.61,230.83,255Zm-57.54-42.48V246H202q11,0,17-4.26t5.94-12.54q0-8.16-5.94-12.42t-17-4.26Zm49.86,69.18q6.3-4.26,6.3-13.14t-6.3-13.08q-6.3-4.2-18.54-4.2H173.29V286h31.32Q216.85,286,223.15,281.71Z"/><path d="M321.07,255q4.74,5.4,4.74,14,0,10.68-7.8,16.44t-23.16,5.76H257.41v-84h35q13.68,0,21.3,5.58t7.62,15.9a19.3,19.3,0,0,1-3.78,12.12,20.88,20.88,0,0,1-10.26,7.08Q316.33,249.61,321.07,255Zm-57.54-42.48V246h28.68q11,0,17-4.26t5.94-12.54q0-8.16-5.94-12.42t-17-4.26Zm49.86,69.18q6.3-4.26,6.3-13.14t-6.3-13.08q-6.3-4.2-18.54-4.2H263.53V286h31.32Q307.09,286,313.39,281.71Z"/></svg>
